<svg xmlns="http://www.w3.org/2000/svg" viewBox="0 0 24 24"><defs><style>.cls-1{fill:none;stroke:#000333;stroke-miterlimit:10;}</style></defs><title>share</title><g id="Layer_2" data-name="Layer 2"><g id="icons"><path class="cls-1" d="M8.07,10.21a4,4,0,1,0,0,3.58"/><path class="cls-1" d="M19.5,8.5a4,4,0,1,0-4-4,4.13,4.13,0,0,0,.42,1.79"/><path class="cls-1" d="M15.92,17.71A4,4,0,1,0,19.5,15.5"/><path class="cls-1" d="M19.5,8.5a4,4,0,0,1-3.58-2.21L8.07,10.21a3.94,3.94,0,0,1,0,3.58l7.85,3.92A4,4,0,0,1,19.5,15.5"/></g></g></svg>